<?xml version="1.0" encoding="utf-8"?>
<!-- Generator: Adobe Illustrator 22.0.0, SVG Export Plug-In . SVG Version: 6.00 Build 0)  -->
<svg version="1.1" id="seamless" xmlns="http://www.w3.org/2000/svg" xmlns:xlink="http://www.w3.org/1999/xlink" x="0px" y="0px"
	 viewBox="0 0 1269.5 923.2" style="enable-background:new 0 0 1269.5 923.2;" xml:space="preserve">
<style type="text/css">
	.st0{fill-rule:evenodd;clip-rule:evenodd;fill:url(#SVGID_1_);}
</style>
<linearGradient id="SVGID_1_" gradientUnits="userSpaceOnUse" x1="628.4427" y1="184.6597" x2="635.1614" y2="487.0051">
	<stop  offset="0" style="stop-color:#DFE1B1"/>
	<stop  offset="1" style="stop-color:#FBF8F4"/>
</linearGradient>
<path class="st0" d="M2.9,271.2c3.2,0,5.3-0.2,7.9-0.2c4.7,0,11.6-2.3,14.5-2.3c2.9,0,4.7-2.3,11.1-2.3s8.7-1,15.8-1
	c6.9,0,16.9,2.3,16.9,2.3s10.5,2.3,18.1,1c7.7-1,10-2.3,17.6-3.3c7.6-1.2,16.9-1.2,16.9-1.2s6.5-2.3,9.4,0c2.9,2.3,7.1,2.3,10,2.3
	c2.9,0,4,1.2,8.2,1.2c4,0,3.4,0,9.8,0s9.4,0,13.5-1.2c4-1,8.7,0,12.7-1c4.2-1.2,5.3-2.3,10-2.3s5.3,0,13.4,0c8.2,0,9.4-1.2,14.7-1.2
	c5.3,0,7.1-5.6,12.9-4.6c5.8,1.2,11.1,1.2,15.2,3.5c4,2.3,2.4,2.3,8.2,3.3c5.8,1.2,8.7,1.2,16.3,1.2s7.1,0,14.7,0s11.6,0,15.8,0
	c4,0,6.9-1.2,12.3-1.2c5.3,0,6.5,2.3,11.1-1c4.7-3.5,11.1-5.8,14.5-6.8c3.5-1.2,5.3-4.8,11.8-5.8c6.4-1.2,10-2.3,13.4-2.3
	c3.5,0,7.1,0,7.1,0s6.5,0,9.4,1c2.9,1.2,9.4,3.5,12.9,3.5c3.4,0,6.3-2.3,12.3,2.3c5.8,4.6,7.6,4.6,12.3,8.1
	c4.7,3.3,23.4,5.6,23.4,5.6s15.8-6.8,19.8-6.8c4,0,10-2.3,16.4-1c6.3,1,8.1,1,11.6,2.3c3.5,1,2.4,2.3,8.7,1c6.5-1,8.2-6.8,15.8-6.8
	c7.6,0,13.5-3.5,21.1-2.3c7.6,1.2,16.9,1.2,16.9,1.2s28.7,18.2,35.6,18.2c7.1,0,46.6,18.4,53.7,18.4c6.9,0,44.3-4.8,60.8-4.8
	c16.3,0,38.5,2.3,56.1,2.3c17.4,0,25.6,0,43.2,0c17.6,0,31.6,2.5,38.5,0c7.1-2.3,24.5-9.1,24.5-9.1s8.2-18.2,16.4-18.2
	c8.2,0,15.2-2.3,23.4-2.3c8.2,0,9.4,0,17.6,0c8.1,0,8.1,0,15.2,0c6.9,0-3.5,9.1,12.9-4.6c16.3-13.9,15.2-16.1,23.4-16.1
	c8.1,0,9.4-2.3,18.7-2.3c9.4,0,12.7-2.3,22.1,0c9.4,2.3,7.1,2.3,20,2.3c12.7,0,16.3,0,24.5,4.6c8.2,4.6,12.9,2.3,19.8,6.8
	c7.1,4.8,16.4,9.3,16.4,9.3c6.6,3.7,12.9,12.4,19.8,11.4c8.7-1.4,16.3-12.2,24.5-18.4c0,0,8.2,2.5,16.4,4.8c8.1,2.3,10.5-4.8,21-9.3
	s19.2-0.8,26.3-0.8c26.6,0,50,22.5,61.3,22.5v301.8c-358.9,132.4-729.8,69.1-1095.1,88.5c-56.3,2.9-127.1,52.1-174.5,6v-94.5V271
	C1.1,271,1.9,271,2.9,271.2z"/>
</svg>
