<?xml version="1.0" encoding="utf-8"?>
<!-- Generator: Adobe Illustrator 22.0.0, SVG Export Plug-In . SVG Version: 6.00 Build 0)  -->
<svg version="1.1" id="seamless" xmlns="http://www.w3.org/2000/svg" xmlns:xlink="http://www.w3.org/1999/xlink" x="0px" y="0px"
	 viewBox="0 0 1269.5 923.2" style="enable-background:new 0 0 1269.5 923.2;" xml:space="preserve">
<style type="text/css">
	.st0{fill-rule:evenodd;clip-rule:evenodd;fill:url(#SVGID_1_);}
</style>
<linearGradient id="SVGID_1_" gradientUnits="userSpaceOnUse" x1="591.777" y1="255.7258" x2="591.777" y2="537.9148">
	<stop  offset="0" style="stop-color:#C4D2A6"/>
	<stop  offset="1" style="stop-color:#FBF8F4"/>
</linearGradient>
<path class="st0" d="M0,312.3c4.2,0.2,9.4,1.2,9.4,1.2c3.7,0,7.3,0,11,0c0,0,11,2.5,13.7,2.5s12.1-1.2,15.5-1.2
	c3.2,0,11-1.2,13.7-1.2s9.8-3.7,9.8-3.7s1.1-3.5,7.1-3.5c6.1,0,10,1.2,13.2,1.2c3.2,0,5-1.2,9.4-1.2c4.4,0,9.4,1.2,13.2,1.2
	s7.1,1,13.1,1c6.1,0,9.4,0,12.7,0c3.2,0,3.2,0,8.7,0c5.5,0,8.2-1,11.6-1c3.2,0,6-1.2,8.7,0c2.7,1,7.7,2.3,10.5,2.3
	c2.7,0,5,2.5,9.8,1.2c5-1.2,8.9-2.5,14.4-2.5c5.5,0,6,0,9.8,0c3.9,0,3.9,2.5,7.7,0c3.9-2.3,3.9-3.5,8.7-4.8c5-1.2,6.1-3.7,11.1-2.5
	c4.8,1.2,8.7,1.2,11.4,2.5c2.7,1.2,1.6,3.7,7.7,0c6-3.7,6.6-7.2,11.4-8.5c5-1.2,6.6-2.5,11-5c4.5-2.3,9.4-6,12.7-7.2
	c3.2-1.2,10.5-1.2,16-1.2c5.5,0,11,0,14.2,1.2c3.4,1.2,3.4-1.2,8.2-3.5c5-2.5,10,6,10,6s9.2,7.2,12.6,9.7c3.2,2.5,6.6,7.2,9.8,7.2
	c3.4,0,8.9,7.2,11.6,8.5c2.7,1.2,8.7,7.2,13.2,7.2c4.4,0,4.4-1.2,9.8,0c5.5,1.2,3.9,2.5,9.4,1.2c5.5-1.2,9.4-1.2,9.4-1.2
	s16.4,3.7,20.3,2.5s15.3-4.8,18.1-4.8c2.7,0,10.5-8.5,10.5-8.5c2.9-3.3,5.8-6.8,8.7-9.7c4-3.9,7.9-9.1,12.1-11
	c5-2.3,10.3-0.8,15.5-1.2c0,0,9.4,1.2,13.7-1.2c4.4-2.5,18.1,0,20.8,0c2.7,0,15.5-2.5,19.2,0c3.9,2.5,10,3.7,12.7,5
	c2.7,1,3.2,2.3,7.1,3.5s2.7,1.2,11,2.5c8.2,1.2,9.4,1.2,16,1.2c6.6,0,6.6-1.2,11.6,0c4.8,1.2,9.2,1.2,14.7,1.2
	c5.5,0,7.1-1.2,13.1-1.2c6.1,0,5-1.2,11.6-1.2s7.1-2.5,13.2-2.5c6,0,6.5-4.8,13.1-2.5c6.6,2.5,6.6,5,10,5c3.2,0,4.4-2.5,11-2.5
	c6.6,0,1.6-1.2,7.6,0c6.1,1.2,5.5,1.2,10.5,1.2c5,0,8.9-1.2,11.6-3.7c2.7-2.3,0.5-4.8,6-4.8s6.1,0,8.9,0c2.7,0,3.7,0,8.7,0
	c5,0,6.6-3.7,11.6,1.2c4.8,4.8,6,7.2,11,8.5c4.8,1.2,4.8,1.2,11.4,3.7c6.6,2.3,11,2.3,16.6,3.5c5.5,1.2,1,1.2,8.2,2.5
	c7.1,1.2,11.4,1.2,18.5,1.2c7.3,0,8.4,1.2,12.1,0c3.9-1.2,7.3-1.2,7.3-1.2s7.1-1.2,12.6-1.2c5.5,0,6,0,11,0c5,0,6.1,0,11.6,1.2
	c5.5,1.2,6.6,2.5,13.1,4.8c6.6,2.5,6.6,1.2,15.5,5c8.7,3.5,9.8,4.8,15.3,8.5c5.5,3.5,5.5,6,10.5,8.5c5,2.5,7.7,3.5,11.4,6
	c3.9,2.5,2.7,2.5,8.4,2.5c5.5,0,8.7,1.2,13.7,0c4.8-1.2,4.8-1.2,7.6-1.2c2.7,0,11-7.2,11-7.2s10.6-7.7,11.6-12.2
	c1.3-5.4,18.1-13.2,24-15.7c6.1-2.5,9.8,2.5,14.4,2.5c4.4,0,15.2,8.5,19,8.5c3.9,0,14.2,1.2,21.9,2.3c7.6,1.2,15.8,0,18.5,1.2
	c2.7,1.2,11.4,1.2,11.4,1.2c15.8,0,41-31.9,47.2,0c14.5,72.6,33.5,209.7,0,237.9c-91.4,76.7-195.6-1.2-293.2,8.5
	c-120.3,12-240.1,41.4-360.2,57.1c-88,11.4-176.4,20.5-264.6,24.2C165.9,650.7,78,713.4,0,685.7V312.3z"/>
</svg>
