<?xml version="1.0" encoding="utf-8"?>
<!-- Generator: Adobe Illustrator 22.0.0, SVG Export Plug-In . SVG Version: 6.00 Build 0)  -->
<svg version="1.1" id="seamless" xmlns="http://www.w3.org/2000/svg" xmlns:xlink="http://www.w3.org/1999/xlink" x="0px" y="0px"
	 viewBox="0 0 1269.5 923.2" style="enable-background:new 0 0 1269.5 923.2;" xml:space="preserve">
<style type="text/css">
	.st0{fill:url(#SVGID_1_);}
</style>
<linearGradient id="SVGID_1_" gradientUnits="userSpaceOnUse" x1="634.75" y1="678.5962" x2="634.75" y2="239.1746" gradientTransform="matrix(1 0 0 -1 0 921.276)">
	<stop  offset="0" style="stop-color:#C4D2A6"/>
	<stop  offset="1" style="stop-color:#FBF8F4"/>
</linearGradient>
<path class="st0" d="M0,312.3c4.5,0.2,10.1,1.2,10.1,1.2c4,0,7.8,0,11.8,0c0,0,11.8,2.5,14.7,2.5c2.9,0,13-1.2,16.6-1.2
	c3.4,0,11.8-1.2,14.7-1.2s10.5-3.7,10.5-3.7s1.2-3.5,7.6-3.5c6.5,0,10.7,1.2,14.2,1.2c3.4,0,5.4-1.2,10.1-1.2
	c4.7,0,10.1,1.2,14.2,1.2c4.1,0,7.6,1,14.1,1c6.5,0,10.1,0,13.6,0c3.4,0,3.4,0,9.3,0c5.9,0,8.8-1,12.4-1c3.4,0,6.4-1.2,9.3,0
	c2.9,1,8.3,2.3,11.3,2.3c2.9,0,5.4,2.5,10.5,1.2c5.4-1.2,9.5-2.5,15.4-2.5c5.9,0,6.4,0,10.5,0c4.2,0,4.2,2.5,8.3,0
	c4.2-2.3,4.2-3.5,9.3-4.8c5.4-1.2,6.5-3.7,11.9-2.5c5.1,1.2,9.3,1.2,12.2,2.5c2.9,1.2,1.7,3.7,8.3,0c6.4-3.7,7.1-7.2,12.2-8.5
	c5.4-1.2,7.1-2.5,11.8-5c4.8-2.3,10.1-6,13.6-7.2c3.4-1.2,11.3-1.2,17.2-1.2c5.9,0,11.8,0,15.2,1.2c3.6,1.2,3.6-1.2,8.8-3.5
	c5.4-2.5,10.7,6,10.7,6s9.9,7.2,13.5,9.7c3.4,2.5,7.1,7.2,10.5,7.2c3.6,0,9.5,7.2,12.4,8.5c2.9,1.2,9.3,7.2,14.2,7.2
	c4.7,0,4.7-1.2,10.5,0c5.9,1.2,4.2,2.5,10.1,1.2c5.9-1.2,10.1-1.2,10.1-1.2s17.6,3.7,21.8,2.5s16.4-4.8,19.4-4.8
	c2.9,0,11.3-8.5,11.3-8.5c3.1-3.3,6.2-6.8,9.3-9.7c4.3-3.9,8.5-9.1,13-11c5.4-2.3,11-0.8,16.6-1.2c0,0,10.1,1.2,14.7-1.2
	c4.7-2.5,19.4,0,22.3,0s16.6-2.5,20.6,0c4.2,2.5,10.7,3.7,13.6,5c2.9,1,3.4,2.3,7.6,3.5c4.2,1.2,2.9,1.2,11.8,2.5
	c8.8,1.2,10.1,1.2,17.2,1.2s7.1-1.2,12.4,0c5.1,1.2,9.9,1.2,15.8,1.2c5.9,0,7.6-1.2,14.1-1.2c6.5,0,5.4-1.2,12.4-1.2
	s7.6-2.5,14.2-2.5c6.4,0,7-4.8,14.1-2.5c7.1,2.5,7.1,5,10.7,5c3.4,0,4.7-2.5,11.8-2.5s1.7-1.2,8.2,0c6.5,1.2,5.9,1.2,11.3,1.2
	c5.4,0,9.5-1.2,12.4-3.7c2.9-2.3,0.5-4.8,6.4-4.8c5.9,0,6.5,0,9.5,0c2.9,0,4,0,9.3,0c5.4,0,7.1-3.7,12.4,1.2
	c5.1,4.8,6.4,7.2,11.8,8.5c5.1,1.2,5.1,1.2,12.2,3.7c7.1,2.3,11.8,2.3,17.8,3.5c5.9,1.2,1.1,1.2,8.8,2.5c7.6,1.2,12.2,1.2,19.8,1.2
	c7.8,0,9,1.2,13,0c4.2-1.2,7.8-1.2,7.8-1.2s7.6-1.2,13.5-1.2c5.9,0,6.4,0,11.8,0c5.4,0,6.5,0,12.4,1.2c5.9,1.2,7.1,2.5,14.1,4.8
	c7.1,2.5,7.1,1.2,16.6,5c9.3,3.5,10.5,4.8,16.4,8.5c5.9,3.5,5.9,6,11.3,8.5c5.4,2.5,8.3,3.5,12.2,6c4.2,2.5,2.9,2.5,9,2.5
	c5.9,0,9.3,1.2,14.7,0c5.1-1.2,5.1-1.2,8.2-1.2c2.9,0,11.8-7.2,11.8-7.2s11.4-7.7,12.4-12.2c1.4-5.4,19.4-13.2,25.7-15.7
	c6.5-2.5,10.5,2.5,15.4,2.5c4.7,0,16.3,8.5,20.4,8.5c4.2,0,15.2,1.2,23.5,2.3c8.2,1.2,16.9,0,19.8,1.2s12.2,1.2,12.2,1.2
	c16.9,0,44-31.9,50.6,0c9.7,45.4,21.3,115.9,19.9,169.4c-0.9,32.1,0.1,434.2,0.1,434.2H0V312.3z"/>
</svg>
