<?xml version="1.0" encoding="utf-8"?>
<!-- Generator: Adobe Illustrator 22.0.0, SVG Export Plug-In . SVG Version: 6.00 Build 0)  -->
<svg version="1.1" id="seamless" xmlns="http://www.w3.org/2000/svg" xmlns:xlink="http://www.w3.org/1999/xlink" x="0px" y="0px"
	 viewBox="0 0 1269.5 923.2" style="enable-background:new 0 0 1269.5 923.2;" xml:space="preserve">
<style type="text/css">
	.st0{fill:url(#SVGID_1_);}
</style>
<linearGradient id="SVGID_1_" gradientUnits="userSpaceOnUse" x1="632.2145" y1="706.6105" x2="638.7094" y2="-365.1752" gradientTransform="matrix(1 0 0 -1 0 921.276)">
	<stop  offset="0" style="stop-color:#97B692"/>
	<stop  offset="1" style="stop-color:#FBF8F4"/>
</linearGradient>
<path class="st0" d="M0,923.2V309.8c5.2,2.5,10.2,5,15.2,7.2c6,2.9,11.4,6.4,17.9,8.7c12.4,4.1,26.6,5.6,38.5,10.5
	c2.7,1.2,0.6,5,3.1,6.4c6.9,3.9,16,5.6,23.7,8.5c11.6,4.7,23.2,9,34.8,13.6c6-3.1,11.4-7,17.7-9.9c8.1-3.9,17.1-6.8,25.3-10.8
	c5.8-2.9,10-8.5,16.8-9.5c9.5-1.2,19.5,0.8,28.9,2.7c3.9,0.8,6.6,3.9,10.2,5.4c3.7,1.7,7.6,3.5,11.8,4.1c6.8,0.8,13.7,0.6,20.3-0.2
	c5.8-0.6,11.8-1.7,16.9-3.9c2.4-1,2.6-4.3,5-5.4c5.2-2.3,11.1-3.3,16.9-4.1c7.9-1,15.8-0.8,23.7-1.2c6.8-0.4,14,0.6,20.3-1.4
	c4.4-1.2,6.6-5.4,10.2-8.1c3.7-2.7,7.6-5.6,11.8-8.1c3.7-2.1,7.9-3.5,11.8-5.4c6.8-3.1,14.2-5.6,20.3-9.3c4-2.5,5.3-7.9,10.2-9.3
	c6.6-2.3,15.2-3.7,21.9-1.4c9.2,3.1,14.7,10.8,22.1,16.1c4.4,3.1,8.9,6.2,13.5,9.3c5,3.3,10,6.4,15.3,9.3c4.4,2.5,9.5,3.9,13.5,6.8
	c5,3.5,8.5,8.3,13.5,12c5.3,3.9,10.8,7.7,16.9,10.8c7.6,3.5,15.8,6.2,23.7,9.3c8.4,3.1,16.8,6.6,25.5,9.3c7.6,2.3,15.8,3.7,23.7,5.4
	c1.8,0.4,3.7,0.8,5.5,1.2c9.8-5.8,20-11.4,30.6-16.3c10.8-5,23.5-7.2,35.6-10.8c5.8-1.7,12.1-2.3,17.7-4.1
	c7.3-2.5,15.2-4.6,20.8-8.7c4.7-3.3,4.7-9.1,9-12.6c15.6-13,31.1-26.3,50.5-36.4c12.9-6.6,30.2-7.7,44.5-12.6
	c13.5-5,27.7-9.7,38.7-17.2c14.2-9.9,20.5-24.8,35.6-34.1c11.4-7,27.4-8.9,41.6-12.8c6.8-1.9,13.5-3.5,20.8-4.1
	c8.9-0.8,17.9-1,26.8,0c5.2,0.4,10.3,2.3,14.8,4.1c8.4,3.7,15.2,9.3,23.7,12.8c8.4,3.5,17.7,5.8,26.8,8.5
	c13.9,4.3,27.7,8.5,41.6,12.8c4,1.2,7.7,3.3,11.9,4.3c7.7,1.9,15.8,2.5,23.7,4.1c9,2.1,17.4,5.6,26.8,6.4c11.8,1.2,24-1.9,35.6,0
	c6.9,1.2,12.3,5.4,17.7,8.7c15.3,8.9,29.2,18.8,44.7,27.7c7.6,4.1,15.5,8.1,23.4,11.8l0.2,613.3H0z"/>
</svg>
