<?xml version="1.0" encoding="utf-8"?>
<!-- Generator: Adobe Illustrator 22.0.0, SVG Export Plug-In . SVG Version: 6.00 Build 0)  -->
<svg version="1.1" id="seamless" xmlns="http://www.w3.org/2000/svg" xmlns:xlink="http://www.w3.org/1999/xlink" x="0px" y="0px"
	 viewBox="0 0 1269.5 923.2" style="enable-background:new 0 0 1269.5 923.2;" xml:space="preserve">
<style type="text/css">
	.st0{fill-rule:evenodd;clip-rule:evenodd;fill:url(#SVGID_1_);}
</style>
<linearGradient id="SVGID_1_" gradientUnits="userSpaceOnUse" x1="643.1021" y1="369.977" x2="645.3419" y2="609.6135">
	<stop  offset="0" style="stop-color:#7FA18B"/>
	<stop  offset="1" style="stop-color:#FBF8F4"/>
</linearGradient>
<path class="st0" d="M1266.1,489.4c-14.5-4.3-142.5-82.1-157.4-85c-25-4.6-24.2,9.1-46.8,8.9c-22.6-0.2-32.7,12-45.2,18.4
	c-12.6,6.6-17.6-9.1-28.9-14.7c-11.4-5.6-13.5-5.8-34-11.2c-20.3-5.6-44.8-31.9-60.3-39.3c-15.5-7.7-25-4.8-60,1.4
	c-35.2,6.4-36.4,7.4-63.2,12.2c-26.9,4.6-36.8-6.4-53.1-10.1c-16.1-3.7-43.1,11-55,14.9c-12.1,3.7-16.6,10.1-41.6-0.2
	c-25.2-10.1-45.5-9.9-80.9-7.9c-35.3,2.1-49.3,4.3-69.3,15.3c-20.2,11-35.6,15.7-58.7,18.2c-23.1,2.3-36.1,11.6-63.9,21.5
	c-27.9,9.9-41.1,2.7-67.6-0.8c-26.4-3.5-47.9,3.3-65.3,11.8c-17.4,8.7-23.2,9.3-45.8,8.9c-22.4-0.2-33.4,16.1-64.5,25.6
	c-31.1,9.5-11,3.9-39.7,19.2l-42.1,74.5l1077.8,140.4L1266.1,489.4z"/>
</svg>
