<?xml version="1.0" encoding="utf-8"?>
<!-- Generator: Adobe Illustrator 22.0.0, SVG Export Plug-In . SVG Version: 6.00 Build 0)  -->
<svg version="1.1" id="seamless" xmlns="http://www.w3.org/2000/svg" xmlns:xlink="http://www.w3.org/1999/xlink" x="0px" y="0px"
	 viewBox="0 0 1269.5 923.2" style="enable-background:new 0 0 1269.5 923.2;" xml:space="preserve">
<style type="text/css">
	.st0{fill:url(#SVGID_1_);}
</style>
<linearGradient id="SVGID_1_" gradientUnits="userSpaceOnUse" x1="634.7999" y1="533.8698" x2="634.7999" y2="-372.026" gradientTransform="matrix(1 0 0 -1 0 921.276)">
	<stop  offset="0" style="stop-color:#65817E"/>
	<stop  offset="1" style="stop-color:#FBF8F4"/>
</linearGradient>
<path class="st0" d="M1269.5,923.2l0.1-433.8h-0.1c-13.7-10.5-32.7-13.2-47.4-20.5c-21.3-5.2-30.5-6.2-50.1-8.5
	c-19.7-2.1-28.9,3.3-47.1,7.4c-18.2,4.3-25.8,8.5-46.9,13.9c-21.3,5.4-25.8,0-56.3-6.4c-30.3-6.4-19.7,1-43.9,6.4
	c-24.3,5.4-19.8-2.1-41-3.1c-21.3-1-41-4.3-71.4-11.8c-30.3-7.4-34.8-5.4-72.7-6.4c-38.1-1-41,3.3-63.9,8.5
	c-22.7,5.4-27.3,4.3-50,7.4c-22.7,3.3-45.3,2.3-63.5,2.3s-45.6-4.3-72.9-7.4c-27.3-3.3-34.8-3.3-65.1-14.9
	c-30.5-11.8-41.1-11.8-59.2-15.9c-18.2-4.3-31.9,4.1-54.7,6.2c-22.7,2.3-36.4,6.4-50.1,11.8c-13.5,5.4-36.4,7.4-45.5,6.4
	c-9-1-34.8-6.4-60.6-15.9c-25.8-9.7-27.4-4.3-51.6-1c-24.3,3.1-36.4,6.2-59.2,9.5c-22.7,3.1-72.1,32.1-96.4,32.1v433.7"/>
</svg>
