<?xml version="1.0" encoding="utf-8"?>
<!-- Generator: Adobe Illustrator 22.0.0, SVG Export Plug-In . SVG Version: 6.00 Build 0)  -->
<svg version="1.1" id="seamless" xmlns="http://www.w3.org/2000/svg" xmlns:xlink="http://www.w3.org/1999/xlink" x="0px" y="0px"
	 viewBox="0 0 1269.5 923.2" style="enable-background:new 0 0 1269.5 923.2;" xml:space="preserve">
<style type="text/css">
	.st0{fill:url(#SVGID_1_);}
</style>
<linearGradient id="SVGID_1_" gradientUnits="userSpaceOnUse" x1="634.8" y1="440.0344" x2="634.8" y2="-101.6062" gradientTransform="matrix(1 0 0 -1 0 921.276)">
	<stop  offset="0" style="stop-color:#4F6870"/>
	<stop  offset="1" style="stop-color:#FBF8F4"/>
</linearGradient>
<path class="st0" d="M0,505.1c10.2,3.1,20.2,8.3,35.8,15.9c8.4,3.9,8.5-3.1,21.4,0.2c6,1.7,10.8,11.6,16.9,12.6
	c7.7,1.2,15.5-3.9,23.1-6.4c2.9-0.8,5.6-2.1,8.5-3.3c3.5-1.7,6.9-3.7,10.5-5.2c5.6-2.5,11.3-5.2,16.9-6.8c7.3-2.1,14.7-3.5,22.1-4.3
	c4.2-0.4,8.4,0.4,12.7,0.6c9.4,0.6,18.9,0.2,28.4,1.7c8.4,1.4,16.8,5.6,25.2,7.2c5,1,10-0.8,14.8,0.8c6.8,2.3,13.9,4.8,20,10.8
	c5.6,5.8,9.7,16.1,14.7,24c4,6.6,7.7,14.7,12.4,20.1c3.9,4.1,8.2,7,12.7,8.3c5.8,1.9,12.6-4.6,17.9,1
	c48.9,52.5,77.2,27.1,123.4,32.1c21.9-15.9,33.7-33.7,47.9-41c28.9-14.9,33.2-5,55.6-21.5c22.4-16.5,19.2-11.6,46-11.6
	s25.6,8.3,52.2-8.3c26.8-16.5,27.7-23.2,55.6-34.7c27.7-11.6,31-8.3,53.4-23.4c22.4-14.9,26.8-14.9,46-21.5s19.2-6.6,39.5-21.5
	s24.7-18.2,39.5-26.5c15-8.3,19.4-16.5,31.1-9.9c11.8,6.6,10.6,6.6,31,21.5c20.3,14.9,24.5,18.2,42.7,24.8
	c18.2,6.6,18.2,1.7,32.1,13.2c13.9,11.6,15,8.3,31,24.8c16.1,16.8,22.4,38.3,46,44.9c23.5,6.6,27.7,11.6,51.3,8.3s25.6,5,43.9-8.3
	c18.2-13.2,12.9-20.3,33.2-21.5c27.3-1.9,40.8-1.2,54.2,2.9l-0.1,418.1H0l0.1-418.1H0z"/>
</svg>
