<?xml version="1.0" encoding="utf-8"?>
<!-- Generator: Adobe Illustrator 22.0.0, SVG Export Plug-In . SVG Version: 6.00 Build 0)  -->
<svg version="1.1" id="seamless" xmlns="http://www.w3.org/2000/svg" xmlns:xlink="http://www.w3.org/1999/xlink" x="0px" y="0px"
	 viewBox="0 0 1269.5 923.2" style="enable-background:new 0 0 1269.5 923.2;" xml:space="preserve">
<style type="text/css">
	.st0{fill-rule:evenodd;clip-rule:evenodd;fill:url(#SVGID_1_);}
</style>
<linearGradient id="SVGID_1_" gradientUnits="userSpaceOnUse" x1="634.7635" y1="466.2474" x2="634.7635" y2="916.7864">
	<stop  offset="0" style="stop-color:#4F6870"/>
	<stop  offset="1" style="stop-color:#FBF8F4"/>
</linearGradient>
<path class="st0" d="M0,505.1c10.2,3.1,20.2,8.3,35.8,15.9c8.4,3.9,8.5-3.1,21.4,0.2c6,1.7,10.8,11.6,16.9,12.6
	c7.7,1.2,15.5-3.9,23.1-6.4c2.9-0.8,5.6-2.1,8.5-3.3c3.5-1.7,6.9-3.7,10.5-5.2c5.6-2.5,11.3-5.2,16.9-6.8c7.3-2.1,14.7-3.5,22.1-4.3
	c4.2-0.4,8.4,0.4,12.7,0.6c9.4,0.6,18.9,0.2,28.4,1.7c8.4,1.4,16.8,5.6,25.2,7.2c5,1,10-0.8,14.8,0.8c6.8,2.3,13.9,4.8,20,10.8
	c5.6,5.8,9.7,16.1,14.7,24c4,6.6,7.7,14.7,12.4,20.1c3.9,4.1,8.2,7,12.7,8.3c5.8,1.9,12.6-4.6,17.9,1
	c48.9,52.5,77.2,27.1,123.4,32.1c21.9-15.9,33.7-33.7,47.9-41c28.9-14.9,33.2-5,55.6-21.5c22.4-16.5,19.2-11.6,46-11.6
	c26.8,0,25.6,8.3,52.2-8.3c26.8-16.5,27.7-23.2,55.6-34.7c27.7-11.6,31-8.3,53.4-23.4c22.4-14.9,26.8-14.9,46-21.5
	c19.2-6.6,19.2-6.6,39.5-21.5c20.3-14.9,24.7-18.2,39.5-26.5c15-8.3,19.4-16.5,31.1-9.9c11.8,6.6,10.6,6.6,31,21.5
	c20.3,14.9,24.5,18.2,42.7,24.8c18.2,6.6,18.2,1.7,32.1,13.2c13.9,11.6,15,8.3,31,24.8c16.1,16.8,22.4,38.3,46,44.9
	c23.5,6.6,27.7,11.6,51.3,8.3s25.6,5,43.9-8.3c18.2-13.2,12.9-20.3,33.2-21.5c27.3-1.9,40.8-1.2,54.2,2.9v183
	c-157.2,4.8-490.4,14.7-521.3,15.9c-16,0.6-61.3-1.9-110.9-6c1.3,0.4,2.4,0.8,3.7,1.2c6.6,2.3,13.5,4.6,20,8.9
	c8.2,5.6,15.8,14.5,24,20.5c7.6,5.8,16,7.7,23.2,14.9c1.3,1.2-0.5,5.4-1.1,7.7c-1.1,3.5-2.6,6.8-4.2,9.3c-2.3,3.1-4.8,5.6-7.4,7.2
	c-3.9,2.5-7.7,4.3-11.6,5.2c-3.9,0.6-7.7-0.4-11.6-0.6c-7.1-0.4-14-0.4-21.1-1.2c-3.9-0.4-7.7-1-11.6-2.7c-3.4-1.4-6.6-5.8-10.3-6.4
	c-3.5-0.4-7.1,1.2-10.5,3.3c-6,3.7-11.1,10.3-16.9,14.5c-3.7,2.5-7.6,4.8-11.6,5c-4.5,0.4-9.2-0.8-13.7-2.7
	c-4.4-1.9-8.2-6.8-12.6-8.3c-4.8-1.7-9.8-0.6-14.7-1c-4.7-0.2-9.2,0.4-13.7-0.6c-5.8-1.4-11.1-5.6-16.9-6.8
	c-5.2-1.2-10.5,0.2-15.8-0.8c-3.5-0.8-6.9-3.5-10.5-4.6c-4.5-1.2-9-2.1-13.7-2.7c-4.5-0.6-9.2-1.9-13.7-0.8
	c-8.2,2.1-16.1,6.4-24.2,10.1c-6.5,3.1-12.7,6.2-19,10.5c-5.2,3.3-9.5,9.9-14.8,12.6c-8.5,4.1-18.1,1.9-26.3,8.1
	c-5,3.7-7.4,14.5-11.8,20.5c-3.4,4.6-7.3,8.9-11.6,10.8c-7.4,3.3-15.3,5.4-23.1,4.6c-5.5-0.6-10.6-5.4-15.8-8.7
	c-4.7-2.9-9.4-6-13.7-10.3c-6.3-6.6-12.6-13.2-17.7-22.3c-3.7-6.4-5.3-16.1-8.4-23.4c-2.4-6-6.1-9.9-8.4-15.9
	c-2.6-7.2-3.1-16.8-6.1-23.4c-1.8-3.9-4.8-5.4-7.4-6.2c-5.8-2.3-11.9-3.3-17.9-3.1c-5,0.4-9.8,2.7-14.7,5c-2.6,1.2-5,3.3-7.4,5.4
	c-4.7,3.9-9.2,8.5-13.9,12.6c-4.5,4.3-8.7,9.9-13.7,12.6c-4.7,2.7-9.8,4.1-14.7,3.1c-4.5-0.8-8.4-5.8-12.6-8.5
	c-2.6-1.4-5-2.5-7.4-4.3c-2.6-1.7-4.7-5.2-7.4-6c-3.4-1.4-6.9,0.2-10.5-0.6c-3.5-1-6.9-4.8-10.5-4.6c-7.6,0.4-15,2.7-22.1,6.4
	c-9.5,5-18.7,11.8-27.6,19.6c-5.6,4.8-10.3,12.8-15.8,18.2c-5.8,5.6-11.8,11.2-18.1,14.5c-8.5,4.1-17.4,6.4-26.3,8.1
	c-4.8,0.8-9.8-0.8-14.8-0.8c-0.3,0-0.8,0-1.3,0V505.1z"/>
</svg>
