<?xml version="1.0" encoding="utf-8"?>
<!-- Generator: Adobe Illustrator 22.0.0, SVG Export Plug-In . SVG Version: 6.00 Build 0)  -->
<svg version="1.1" id="seamless" xmlns="http://www.w3.org/2000/svg" xmlns:xlink="http://www.w3.org/1999/xlink" x="0px" y="0px"
	 viewBox="0 0 1269.5 923.2" style="enable-background:new 0 0 1269.5 923.2;" xml:space="preserve">
<style type="text/css">
	.st0{fill-rule:evenodd;clip-rule:evenodd;fill:url(#SVGID_1_);}
</style>
<linearGradient id="SVGID_1_" gradientUnits="userSpaceOnUse" x1="635.6284" y1="545.5312" x2="633.3891" y2="915.0621">
	<stop  offset="0" style="stop-color:#445A68"/>
	<stop  offset="1" style="stop-color:#FBF8F4"/>
</linearGradient>
<path class="st0" d="M1269.5,525.4c-9.4-6-18.2-7.4-25.2-6.4c-7.4,1-12.9,5.2-18.1,8.7c-5.2,3.3-9.8,6.4-14.4,8.3
	c-4.4,1.9-8.4,2.7-13.7,0.6c-5.2-2.1-11.6-7-20.5-13.9c-8.9-6.8-20-15.3-30-21.7c-10-6.4-18.9-10.3-26.8-9.9
	c-8.1,0.6-15.3,5.6-24,7.7c-8.7,2.1-18.9,1.4-28.9,1.7c-9.8,0.4-19.7,1.9-28.7,3.9c-9,2.1-17.1,4.8-28.4,14.1
	c-11.3,9.1-25.6,24.6-40.6,31.9c-15.2,7-31,6-43.4,8.3c-12.4,2.5-21.4,8.5-31.9,16.5c-10.6,8.1-22.9,18.2-32.9,23
	c-10,4.8-17.9,4.1-30.3,2.7c-12.4-1.4-29.3-3.9-45.2-4.1c-16,0-31,2.1-44.3,2.9c-13.4,0.6-25.3-0.4-36.1,0
	c-10.8,0.2-20.6,1.7-30.3,3.1c-9.8,1.4-19.7,2.9-27.7,5.2c-8.1,2.1-14.5,5-24.5,6.4c-10,1.4-23.7,1.4-34.7,2.3
	c-10.8,0.8-18.9,2.5-29.3,4.6c-10.3,1.9-23.1,4.3-32.6,3.5c-9.7-0.6-16.1-4.6-25.5-8.1c-9.5-3.5-21.8-6.6-32.4-8.1
	c-10.6-1.2-19.8-0.8-27.6,1.2c-7.9,2.3-14.5,6.2-21.3,8.9c-6.8,2.9-13.7,4.6-19.5,6.4c-5.8,1.7-10.5,3.5-18.5,4.6
	c-8.1,1-19.5,1.4-27.1,0.8c-7.6-0.6-11.4-2.1-18.2-3.1c-6.8-1-16.3-1.9-25.5-1.4c-9.2,0.4-17.7,2.1-25.3,0.2
	c-7.6-1.7-14-6.6-21.4-9.3c-7.4-2.9-16-3.5-22.6-2.3c-6.6,1-11.4,4.1-16.3,5.4c-5,1.2-10,0.8-15.5,2.1c-5.6,1.2-11.4,4.1-16,7.2
	c-4.5,2.9-7.6,6-14,7.2c-6.3,1.2-16,0.4-22.9-0.6c-7.1-1.2-11.4-2.7-15.8-5.2c-4.4-2.5-8.5-6.2-13.9-10.5
	c-5.5-4.3-11.8-9.1-16.9-12.4c-5.2-3.1-9-4.6-13.5-5c-8.7-0.6-60-39.3-66.6-47.6c-7.6-9.5-18.5-21.5-28.7-28.3
	c-0.6-0.4-1.5-0.8-2.1-1.2v325.8h61.3c0-10.8,1.9-24.6,5-40.3c4.2,1.7,8.2,2.9,11.8,3.7c7.7,1.7,12.9,1,20,1
	c7.1-0.2,16.1,0.6,24.8,2.3c8.7,1.9,16.9,4.8,25.2,4.8c8.2,0.2,16.4-2.7,25.5-1.4s18.9,6.6,27.7,12.2c8.9,5.8,16.9,11.8,22.7,17.4
	l0.5,0.4h1045.1V525.4z"/>
</svg>
