<?xml version="1.0" encoding="utf-8"?>
<!-- Generator: Adobe Illustrator 22.0.0, SVG Export Plug-In . SVG Version: 6.00 Build 0)  -->
<svg version="1.1" id="seamless" xmlns="http://www.w3.org/2000/svg" xmlns:xlink="http://www.w3.org/1999/xlink" x="0px" y="0px"
	 viewBox="0 0 1269.5 923.2" style="enable-background:new 0 0 1269.5 923.2;" xml:space="preserve">
<style type="text/css">
	.st0{fill-rule:evenodd;clip-rule:evenodd;fill:url(#SVGID_1_);}
</style>
<linearGradient id="SVGID_1_" gradientUnits="userSpaceOnUse" x1="634.0219" y1="647.9831" x2="636.2611" y2="1053.3488">
	<stop  offset="0" style="stop-color:#384D64"/>
	<stop  offset="1" style="stop-color:#FBF8F4"/>
</linearGradient>
<path class="st0" d="M1269.5,641.4c-2.1-0.4-5.5-0.8-19.4,0.2c0,0-4.5,2.9-7.3-1.9c-2.7-4.6-6.4-12-11-14.3
	c-4.5-2.5-11-6.4-13.7-1.9c-2.6,4.8,0,8.1-4.5,5.2s-10-6.2-16.3-6.8c-6.4-0.6-14.7-4.1-14.7-4.1s-3.7,1.2-8.2,0.6
	c-4.5-0.6-7.3-7.4-13.7-8.1c-6.3-0.6-10-2.9-13.5,0c-3.7,2.9-2.7,0.6-7.3,1.7c-4.7,1.2-12.9,5.8-12.9,5.8s4.7,0.6-4.5-1.7
	c-9-2.3-18.2-3.5-18.2-3.5l-2.7,4.8c0,0-5.5,4.6-8.2,7.4s1-5.8-7.3,3.5c-8.2,9.1-12.7,13.9-12.7,13.9s-4.5,1-4.5-5.4
	c0-6.2-1.9-11.4-1.9-11.4s-11.8-3.5-13.5-0.6c-1.9,2.9,0,4.6-2.7,7.4c-2.7,2.9-9.2,13.9-9.2,13.9s1.9,4.6,1,8.1c-1,3.5-7.3,7-7.3,7
	s-2.7,3.3-5.5-5.2c-2.7-8.7-6.5-16.8-6.5-16.8s1.9-11-3.5-3.5c-5.5,7.4-5.5,8.7-8.2,5.2c-2.7-3.5-7.3-4.6-7.3-4.6l-8.2,12l-10,5.2
	c0,0,0.8,0.6-6.5-2.9c-7.3-3.3-8.2-3.9-13.7-3.3c-5.5,0.4-2.7-3.5-14.5-5.8c-11.9-2.3-8.2-12.8-17.4-2.3c-9,10.3-9,7.4-14.5,5.8
	c-5.5-1.9-13.2,2.1-13.9-1.4c-0.5-3.5-1.1-4.1-1.1-4.1s-0.5-2.9-3.2,1c-2.7,3.7-3.9,3.7-3.9,3.7l-5.5-0.4c0,0-3.7,1.4-6.5,1.4
	c-2.7,0-9.4-4.8-9.4-4.8s-1.1-3.1-4.8-1.4c-3.9,1.7-4.5-0.4-6.6,3.1c-2.3,3.5-3.2,6-6.6,6.2c-3.2,0.4-12.6-7.2-14.7-4.6
	c-2.3,2.9-2.7,4.6-3.9,6.4c-1.1,1.7-1.1,2.7-1.1,4.8c0,2.1,1.6,3.5-1.1,6c-2.7,2.3-3.2,2.1-5.5,5.4c-2.1,3.5-1.6,4.1-3.2,6.2
	c-1.6,2.3-7.6-1.7-7.6-1.7s7.6-12.4,0.5-6.8c-7.1,5.4-11,7.9-11,7.9s1.1,3.5-2.7,2.1c-3.7-1.4-12.6-6.6-12.6-6.6s-7.1-7.4-8.2-5.4
	c-1,2.1-1.6,4.8-3.2,7.2c-1.6,2.3-2.3,4.1-3.2,6.6c-1.1,2.3-1.1,1.7-2.3,4.3c-1.1,2.9,0.6,2.5-1.6,6.2c-2.3,3.9-0.5,6.6-3.9,8.5
	c-3.2,1.7-2.1,1.7-4.4,5.2c-2.1,3.3-1.1,3.1-4.4,6.6c-3.2,3.3-3.2,3.1-3.9,5.4c-0.3,1.4-8.2,2.7-15.2,4.6c-1-0.2-2.1-0.6-3.7-1.2
	c-4.7-1.7-7.9-1.7-7.9-1.7l-8.1,0.8c0,0-4.7,2.1-10-0.8c-5.3-3.1-11.3-5.2-11.3-5.2s-6.6-0.8-10,0.8c-3.4,1.7,1.3,1.2-6,0
	c-7.4-1.2-14-4.1-18.7-7.9c-4.7-3.9-6.6-7.2-10-4.3c-3.4,2.9-5.3,6.4-5.3,6.4l-4.7,1.2l-4-2.5c0,0-1.3-0.8-7.3,0.8
	c-5.8,1.7-4.5,4.6-7.9,4.1c-3.2-0.4-1.9-1.2-6-3.3c-4-2.1-4.7-7.7-8.7-2.5c-3.9,5-3.9,5-3.9,5s-5.8-2.1-11.3,1.4
	c-5.5,3.3-6.5,2.9-6.5,2.9l-5.5,2.3l-4.5,0.6c0,0-2.7-11-6.3-7.7c-3.7,3.5-4.7,4.8-4.7,4.8l-4.5,1l-5.5-4.6c0,0-2.7-4.6-5.5-8.1
	c-2.7-3.5,0-15.7-5.5-8.7c-5.5,6.8-10,12.2-10,12.2s-2.7,5.6-7.3,3.3c-4.5-2.3-2.7-2.9-9.2-2.9c-6.3,0-6.3,1.2-8.1-1.7
	c-1.9-2.9-7.4-4.6-7.4-4.6s-4.5-8.1-10-4.8c-5.5,3.5-5.5,3.5-10,7.7c-4.5,3.9-12.7,9.7-12.7,9.7s3.7,3.5-6.5-8.1
	c-10-11.6-7.3-22.5-14.5-16.8c-7.3,5.8-6.4,7-11.9,6.4c-5.3-0.6-6.3,1-10.8-1.9c-4.7-2.9-11-7.4-16.4-9.1c-5.5-1.9-3.7-4.1-11.8-0.6
	c-8.2,3.5-9.2,4.6-13.7,2.3c-4.7-2.3-13.7-9.7-13.7-9.7l-5.5-5.8l-1-8.1l-7.3,5.2l-1.8,2.9c0,0-1-1.2-6.5,0.6
	c-5.5,1.7-4.5,1.7-8.1-2.9c-3.7-4.8,0-12.8-6.4-5.4c-6.5,7.7-11.9,15.1-16.4,14.5c-4.5-0.6-11.8-1.7-11.8-4.6c0-2.9,0.8-7.4-5.5-8.7
	c-6.5-1.2-15.5-3.9-15.5-3.9s5.5-9.9-2.7-5.8c-8.2,3.9-15.5,5.2-15.5,5.2l-5.5,2.9l-11.9,1.7c-16.3-8.1-23.5-10.3-31.8-14.9
	c-8.2-4.8-16.4-7.7-16.4-7.7s1.8-2.3-4.5,0c-6.4,2.3-21.9,4.8-21.9,4.8s-1-5.8-11.8-2.5c-11,3.5-18.2,7.7-18.2,7.7s1.8,1.7-4.7-2.3
	c-6.3-4.1-18.2-12.8-18.2-12.8s-4.5,3.5-9,6.4s-6.4,8.1-11,6.4c-4.5-1.9-11-8.3-15.5-9.9c-4.5-1.7-11.9-9.7-14.5-6.4
	c-2.7,3.5-5.5,7.7-5.5,7.7l-3.7,6.2c0,0-6.5,1.2-13.7,1.9s-5.5-5.2-13.5-4.1c-8.2,1.2-20.2,3.5-20.2,3.5s3.2,0.4-5.5,2.3
	c-6,1.2,0,0-17.1-4.8v281.7h736.8h532.8V641.4z"/>
</svg>
